<svg width="116" height="51" viewBox="0 0 116 51" fill="none" xmlns="http://www.w3.org/2000/svg">
<path d="M25.3013 47.9625L0.753906 50.9543L18.6235 24.6629L38.7754 28.1416L25.3047 47.9625H25.3013ZM28.6825 9.85173L25.2506 14.8985H93.7332C101.219 14.8985 108.215 11.2083 112.397 5.04674L115.829 0H47.3467C39.8607 0 32.8651 3.6902 28.6825 9.85173ZM66.5755 18.1757L53.7236 37.0867L68.0159 35.344L79.6844 18.1723H66.5755V18.1757ZM83.6674 18.1757L72.3573 34.8168L81.5576 33.6953C84.7934 33.3025 87.6944 31.5363 89.5169 28.8534L96.7729 18.1757H83.664H83.6674ZM5.14607 18.1757L4.63889 18.9211L44.351 25.7743L35.1271 39.3532L49.3788 37.6172L62.5891 18.1757H5.14607Z" fill="white"/>
</svg>
